<mxfile host="localhost" modified="2020-05-16T20:02:49.441Z" agent="5.0 (Macintosh; Intel Mac OS X 10_15_4) AppleWebKit/537.36 (KHTML, like Gecko) Code/1.45.0 Chrome/78.0.3904.130 Electron/7.2.4 Safari/537.36" etag="n7WOWI4PQcHN3YMmqeCd" version="13.0.9">
    <diagram id="Sttl8mKHboSlKdve3zSI" name="Page-1">
        <mxGraphModel dx="490" dy="399" grid="1" gridSize="10" guides="1" tooltips="1" connect="1" arrows="1" fold="1" page="1" pageScale="1" pageWidth="827" pageHeight="1169" math="0" shadow="0">
            <root>
                <mxCell id="0"/>
                <mxCell id="1" parent="0"/>
                <mxCell id="40" value="Client&lt;br&gt;" style="shape=umlLifeline;perimeter=lifelinePerimeter;whiteSpace=wrap;html=1;container=1;collapsible=0;recursiveResize=0;outlineConnect=0;" parent="1" vertex="1">
                    <mxGeometry x="40" y="40" width="100" height="250" as="geometry"/>
                </mxCell>
                <mxCell id="44" value="Server" style="shape=umlLifeline;perimeter=lifelinePerimeter;whiteSpace=wrap;html=1;container=1;collapsible=0;recursiveResize=0;outlineConnect=0;" parent="1" vertex="1">
                    <mxGeometry x="280" y="40" width="100" height="250" as="geometry"/>
                </mxCell>
                <mxCell id="59" value="" style="html=1;points=[];perimeter=orthogonalPerimeter;" parent="44" vertex="1">
                    <mxGeometry x="45" y="59" width="10" height="20" as="geometry"/>
                </mxCell>
                <mxCell id="81" value="" style="html=1;points=[];perimeter=orthogonalPerimeter;" parent="44" vertex="1">
                    <mxGeometry x="45" y="89" width="10" height="20" as="geometry"/>
                </mxCell>
                <mxCell id="86" value="" style="html=1;points=[];perimeter=orthogonalPerimeter;" parent="44" vertex="1">
                    <mxGeometry x="45" y="119" width="10" height="20" as="geometry"/>
                </mxCell>
                <mxCell id="89" value="" style="html=1;points=[];perimeter=orthogonalPerimeter;" parent="44" vertex="1">
                    <mxGeometry x="45" y="150" width="10" height="20" as="geometry"/>
                </mxCell>
                <mxCell id="90" value="" style="html=1;points=[];perimeter=orthogonalPerimeter;" parent="44" vertex="1">
                    <mxGeometry x="45" y="180" width="10" height="20" as="geometry"/>
                </mxCell>
                <mxCell id="98" value="" style="html=1;points=[];perimeter=orthogonalPerimeter;" parent="44" vertex="1">
                    <mxGeometry x="45" y="210" width="10" height="20" as="geometry"/>
                </mxCell>
                <mxCell id="57" value="GetSessionV1" style="html=1;verticalAlign=bottom;endArrow=block;entryX=0;entryY=0;" parent="1" target="59" edge="1">
                    <mxGeometry x="0.0213" y="-20" relative="1" as="geometry">
                        <mxPoint x="90" y="99" as="sourcePoint"/>
                        <mxPoint as="offset"/>
                    </mxGeometry>
                </mxCell>
                <mxCell id="58" value="" style="html=1;verticalAlign=bottom;endArrow=open;dashed=1;endSize=8;exitX=0;exitY=0.95;" parent="1" source="59" edge="1">
                    <mxGeometry relative="1" as="geometry">
                        <mxPoint x="89.5" y="118" as="targetPoint"/>
                    </mxGeometry>
                </mxCell>
                <mxCell id="75" value="" style="shape=curlyBracket;whiteSpace=wrap;html=1;rounded=1;rotation=-180;" parent="1" vertex="1">
                    <mxGeometry x="350" y="99" width="20" height="20" as="geometry"/>
                </mxCell>
                <mxCell id="76" value="&lt;b&gt;Device&lt;/b&gt;" style="text;html=1;align=left;verticalAlign=middle;resizable=0;points=[];autosize=1;" parent="1" vertex="1">
                    <mxGeometry x="380" y="99" width="50" height="20" as="geometry"/>
                </mxCell>
                <mxCell id="82" value="ElevateRegularSessionInitV1" style="html=1;verticalAlign=bottom;endArrow=block;entryX=0;entryY=0;" parent="1" target="81" edge="1">
                    <mxGeometry x="0.0213" y="-20" relative="1" as="geometry">
                        <mxPoint x="90" y="129" as="sourcePoint"/>
                        <mxPoint as="offset"/>
                    </mxGeometry>
                </mxCell>
                <mxCell id="83" value="" style="html=1;verticalAlign=bottom;endArrow=open;dashed=1;endSize=8;exitX=0;exitY=0.95;" parent="1" source="81" edge="1">
                    <mxGeometry relative="1" as="geometry">
                        <mxPoint x="89.5" y="148" as="targetPoint"/>
                    </mxGeometry>
                </mxCell>
                <mxCell id="84" value="" style="shape=curlyBracket;whiteSpace=wrap;html=1;rounded=1;rotation=-180;" parent="1" vertex="1">
                    <mxGeometry x="350" y="129" width="20" height="49" as="geometry"/>
                </mxCell>
                <mxCell id="85" value="&lt;b&gt;Session&lt;/b&gt;&lt;br&gt;RegularSession&lt;br&gt;" style="text;html=1;align=left;verticalAlign=middle;resizable=0;points=[];autosize=1;" parent="1" vertex="1">
                    <mxGeometry x="380" y="138.5" width="100" height="30" as="geometry"/>
                </mxCell>
                <mxCell id="87" value="ElevateRegularSessionCompleteV1" style="html=1;verticalAlign=bottom;endArrow=block;entryX=0;entryY=0;" parent="1" target="86" edge="1">
                    <mxGeometry x="0.0213" y="-20" relative="1" as="geometry">
                        <mxPoint x="90" y="159" as="sourcePoint"/>
                        <mxPoint as="offset"/>
                    </mxGeometry>
                </mxCell>
                <mxCell id="88" value="" style="html=1;verticalAlign=bottom;endArrow=open;dashed=1;endSize=8;exitX=0;exitY=0.95;" parent="1" source="86" edge="1">
                    <mxGeometry relative="1" as="geometry">
                        <mxPoint x="89.5" y="178" as="targetPoint"/>
                    </mxGeometry>
                </mxCell>
                <mxCell id="91" value="ElevatePasswordElevatedSessionInitV1" style="html=1;verticalAlign=bottom;endArrow=block;entryX=0;entryY=0;" parent="1" target="89" edge="1">
                    <mxGeometry x="0.0213" y="-20" relative="1" as="geometry">
                        <mxPoint x="90" y="190" as="sourcePoint"/>
                        <mxPoint as="offset"/>
                    </mxGeometry>
                </mxCell>
                <mxCell id="92" value="" style="html=1;verticalAlign=bottom;endArrow=open;dashed=1;endSize=8;exitX=0;exitY=0.95;" parent="1" source="89" edge="1">
                    <mxGeometry relative="1" as="geometry">
                        <mxPoint x="89.5" y="209" as="targetPoint"/>
                    </mxGeometry>
                </mxCell>
                <mxCell id="93" value="ElevatePasswordElevatedSessionCompleteV1" style="html=1;verticalAlign=bottom;endArrow=block;entryX=0;entryY=0;" parent="1" target="90" edge="1">
                    <mxGeometry x="0.0213" y="-20" relative="1" as="geometry">
                        <mxPoint x="90" y="220" as="sourcePoint"/>
                        <mxPoint as="offset"/>
                    </mxGeometry>
                </mxCell>
                <mxCell id="94" value="" style="html=1;verticalAlign=bottom;endArrow=open;dashed=1;endSize=8;exitX=0;exitY=0.95;" parent="1" source="90" edge="1">
                    <mxGeometry relative="1" as="geometry">
                        <mxPoint x="89.5" y="239" as="targetPoint"/>
                    </mxGeometry>
                </mxCell>
                <mxCell id="96" value="" style="shape=curlyBracket;whiteSpace=wrap;html=1;rounded=1;rotation=-180;" parent="1" vertex="1">
                    <mxGeometry x="350" y="190" width="20" height="49" as="geometry"/>
                </mxCell>
                <mxCell id="97" value="&lt;b&gt;Session&lt;/b&gt;&lt;br&gt;PasswordElevatedSession" style="text;html=1;align=left;verticalAlign=middle;resizable=0;points=[];autosize=1;" parent="1" vertex="1">
                    <mxGeometry x="380" y="199.5" width="160" height="30" as="geometry"/>
                </mxCell>
                <mxCell id="99" value="DeleteAccountV1" style="html=1;verticalAlign=bottom;endArrow=block;entryX=0;entryY=0;" parent="1" target="98" edge="1">
                    <mxGeometry x="0.0213" y="-20" relative="1" as="geometry">
                        <mxPoint x="90" y="250" as="sourcePoint"/>
                        <mxPoint as="offset"/>
                    </mxGeometry>
                </mxCell>
                <mxCell id="100" value="" style="html=1;verticalAlign=bottom;endArrow=open;dashed=1;endSize=8;exitX=0;exitY=0.95;" parent="1" source="98" edge="1">
                    <mxGeometry relative="1" as="geometry">
                        <mxPoint x="89.5" y="269" as="targetPoint"/>
                    </mxGeometry>
                </mxCell>
                <mxCell id="101" value="" style="shape=curlyBracket;whiteSpace=wrap;html=1;rounded=1;rotation=-180;" parent="1" vertex="1">
                    <mxGeometry x="350" y="250" width="20" height="20" as="geometry"/>
                </mxCell>
                <mxCell id="102" value="&lt;b&gt;Session&lt;/b&gt;&lt;br&gt;MultiFactorElevatedSession" style="text;html=1;align=left;verticalAlign=middle;resizable=0;points=[];autosize=1;" parent="1" vertex="1">
                    <mxGeometry x="380" y="245" width="160" height="30" as="geometry"/>
                </mxCell>
            </root>
        </mxGraphModel>
    </diagram>
</mxfile>
